<?xml version="1.0" standalone="no"?>
<!DOCTYPE svg PUBLIC "-//W3C//DTD SVG 20010904//EN"
 "http://www.w3.org/TR/2001/REC-SVG-20010904/DTD/svg10.dtd">
<svg version="1.0" xmlns="http://www.w3.org/2000/svg"
 width="260.000000pt" height="260.000000pt" viewBox="0 0 260.000000 260.000000"
 preserveAspectRatio="xMidYMid meet">
<metadata>
Created by potrace 1.11, written by Peter Selinger 2001-2013
</metadata>
<g transform="translate(0.000000,260.000000) scale(0.100000,-0.100000)"
fill="#000000" stroke="none">
<path d="M2116 1853 c-98 -29 -178 -101 -227 -207 -16 -34 -28 -52 -29 -41 -6
189 -54 250 -191 248 -54 -1 -75 -7 -110 -28 -96 -60 -149 -127 -185 -235
l-21 -65 1 121 c1 113 -1 123 -24 157 -62 91 -206 69 -323 -50 -67 -67 -102
-131 -93 -167 14 -57 59 -47 143 33 120 112 158 105 150 -29 -3 -41 -8 -86
-11 -100 -2 -14 -7 -41 -10 -60 -3 -19 -7 -44 -10 -55 -2 -11 -7 -40 -11 -65
-4 -25 -9 -54 -11 -65 -3 -11 -7 -36 -10 -55 -3 -19 -12 -64 -21 -100 -18 -73
-20 -188 -4 -218 11 -22 25 -28 78 -37 24 -4 38 0 57 17 21 19 31 51 61 193
35 158 49 217 90 369 20 72 57 147 98 200 36 45 126 91 161 82 61 -15 59 -111
-8 -422 -2 -12 -7 -37 -10 -55 -3 -19 -12 -78 -21 -133 -25 -152 -24 -201 5
-231 41 -43 117 -28 144 29 8 17 17 54 21 81 13 100 67 351 91 423 65 195 172
327 250 308 60 -15 59 -80 -3 -324 -42 -165 -47 -200 -47 -292 -1 -119 10
-149 68 -194 85 -64 181 -67 286 -9 95 53 153 120 144 169 -15 85 -34 91 -94
25 -49 -54 -88 -77 -135 -82 -45 -4 -72 9 -83 39 -20 59 7 246 64 434 25 85
31 163 18 234 -26 139 -109 194 -238 157z"/>
<path d="M620 1848 c-47 -5 -107 -15 -135 -23 -141 -41 -331 -199 -392 -325
-43 -90 -67 -212 -68 -345 0 -89 4 -117 19 -145 62 -116 151 -173 270 -174
113 -1 192 41 248 133 l22 34 12 -37 c31 -87 86 -127 183 -131 157 -6 331 145
290 253 -16 41 -36 37 -98 -20 -97 -91 -164 -109 -189 -53 -26 56 -8 249 44
473 22 100 19 129 -16 147 -16 8 -41 13 -55 11 -69 -13 -70 -14 -100 -161 -36
-177 -113 -367 -176 -440 -62 -70 -139 -92 -194 -54 -137 94 -88 451 82 605
50 44 144 89 217 104 56 11 177 9 256 -6 74 -14 97 -9 115 26 20 38 19 73 -2
93 -42 36 -170 50 -333 35z"/>
</g>
</svg>
